<svg xmlns="http://www.w3.org/2000/svg" viewBox="0 0 900 640" role="img" aria-label="DayForge focus landscape">
  <defs>
    <linearGradient id="sky" x1="0" x2="1" y1="0" y2="1">
      <stop offset="0" stop-color="#111827"/>
      <stop offset="0.46" stop-color="#261452"/>
      <stop offset="1" stop-color="#071d2f"/>
    </linearGradient>
    <linearGradient id="road" x1="0" x2="1" y1="0" y2="1">
      <stop offset="0" stop-color="#7c5cff"/>
      <stop offset="0.55" stop-color="#22d3ee"/>
      <stop offset="1" stop-color="#34d399"/>
    </linearGradient>
    <radialGradient id="sun" cx="58%" cy="28%" r="38%">
      <stop offset="0" stop-color="#ffffff" stop-opacity="0.9"/>
      <stop offset="0.28" stop-color="#a78bfa" stop-opacity="0.45"/>
      <stop offset="1" stop-color="#a78bfa" stop-opacity="0"/>
    </radialGradient>
    <filter id="blur">
      <feGaussianBlur stdDeviation="18"/>
    </filter>
  </defs>
  <rect width="900" height="640" fill="url(#sky)"/>
  <circle cx="520" cy="175" r="210" fill="url(#sun)"/>
  <g opacity="0.72">
    <circle cx="128" cy="92" r="2" fill="#e9d5ff"/>
    <circle cx="252" cy="156" r="1.8" fill="#c4b5fd"/>
    <circle cx="742" cy="118" r="2.2" fill="#bae6fd"/>
    <circle cx="812" cy="224" r="1.7" fill="#bbf7d0"/>
    <circle cx="420" cy="82" r="1.5" fill="#fef3c7"/>
  </g>
  <path d="M0 396 C122 310 224 342 320 270 C410 204 505 252 590 198 C704 126 798 184 900 122 L900 640 L0 640 Z" fill="#0f172a" opacity="0.82"/>
  <path d="M0 430 C118 354 230 386 334 316 C430 252 510 310 610 250 C706 192 798 242 900 184 L900 640 L0 640 Z" fill="#111827" opacity="0.88"/>
  <path d="M0 500 C170 420 310 470 456 396 C606 318 738 394 900 300 L900 640 L0 640 Z" fill="#0b1120"/>
  <path d="M358 640 C418 500 448 420 468 318 C488 420 522 504 594 640 Z" fill="url(#road)" opacity="0.82"/>
  <path d="M456 640 C464 528 466 428 468 318 C474 426 482 528 494 640 Z" fill="#f8fafc" opacity="0.35"/>
  <ellipse cx="470" cy="590" rx="220" ry="58" fill="#000000" opacity="0.34" filter="url(#blur)"/>
  <g transform="translate(404 250)">
    <circle cx="64" cy="36" r="22" fill="#f8fafc"/>
    <path d="M46 70 C58 58 75 58 86 70 L112 151 C116 164 108 176 94 176 L35 176 C22 176 14 164 18 151 Z" fill="#f8fafc"/>
    <path d="M34 104 L8 140 M94 104 L122 138" fill="none" stroke="#f8fafc" stroke-width="18" stroke-linecap="round"/>
    <path d="M46 176 L30 240 M82 176 L102 240" fill="none" stroke="#f8fafc" stroke-width="20" stroke-linecap="round"/>
  </g>
  <rect x="32" y="32" width="174" height="46" rx="14" fill="#ffffff" opacity="0.08"/>
  <text x="56" y="61" fill="#ffffff" font-family="Inter, Arial, sans-serif" font-size="16" font-weight="800" letter-spacing="5">DAYFORGE</text>
</svg>
